<svg xmlns="http://www.w3.org/2000/svg" height="800" width="1200" viewBox="-37.19958 -15.183725 322.39636 91.10235"><path fill="maroon" d="M1.6522 0c-.0498 0-.219.004-.3106.0664L1.285.1035 1.2733.172c-.1457.8288-.452 2.144-.7832 3.0762l-.0235.0645.0293.0605c.125.2509.5529.3742.7813.203l.0332-.0252.0176-.0391c.2114-.4807.4107-.9341.8984-1.3828.4586-.4215 1.4969-.4785 2.4531-.4785H5.824c.4652 0 .4649.0002.4649.5058v9.3086c0 2.256-.1296 2.354-1.1445 2.443l-.7481.063-.0703.021c-.124.077-.1955.232-.1875.416.005.14.0629.315.1992.383l.0352.02.041-.002c1.2747-.039 2.0448-.061 2.8887-.061.8128 0 1.485.018 2.7224.061l.041.002.035-.02c.137-.068.197-.253.205-.404.012-.18-.042-.322-.146-.391l-.74-.088c-1.0419-.089-1.1038-.227-1.1038-2.443V2.133c-.0004-.213-.0012-.413.0332-.4473.0352-.0351.2608-.0351.4102-.0351h1.4784c1.116 0 1.875.1608 2.32.4902.198.1447.369.672.457 1.4102l.006.0449.032.037c.076.0927.217.1485.377.1485.197 0 .362-.0843.429-.2207l.02-.041-.004-.047c-.059-.5994.085-2.277.308-3.1073l.016-.0586-.027-.0547c-.081-.1574-.312-.17-.381-.17-.052 0-.128.006-.195.0333l-.053.0195-.028.0489c-.267.4642-.378.5019-1.484.5019H3.4217C2.4895.6856 2.0721.636 1.9842.17L1.9744.1212 1.9393.086C1.8814.0282 1.7875 0 1.6522 0zm176.83 0c-.05 0-.22.004-.31.0664l-.06.0371-.01.0684c-.15.8321-.46 2.1496-.79 3.0762l-.02.0645.03.0625c.13.2504.55.373.78.201l.03-.0252.02-.0391c.21-.4821.41-.937.9-1.3828.46-.4215 1.5-.4785 2.45-.4785h1.15c.46 0 .46.0003.46.5058v9.3086c0 2.256-.13 2.355-1.14 2.443l-.75.063-.07.021c-.13.077-.2.234-.19.418.01.141.07.314.2.381l.04.02.04-.002c1.27-.039 2.04-.063 2.89-.063.81 0 1.48.02 2.72.063l.04.002.03-.018c.18-.084.2-.329.21-.402.01-.182-.04-.326-.15-.395l-.74-.088c-1.04-.089-1.1-.227-1.1-2.443v-9.334c0-.2114 0-.4115.03-.4453.04-.0351.26-.0351.41-.0351h1.48c1.12 0 1.88.1589 2.32.4882.2.1443.37.673.46 1.4122v.0449l.03.037c.08.093.22.1485.38.1485.2 0 .37-.0863.43-.2226l.02-.041v-.045c-.06-.5972.08-2.2743.31-3.1074l.01-.0566-.03-.0547c-.07-.155-.29-.172-.38-.172-.05 0-.13.004-.19.0313l-.06.0215-.02.0489c-.27.4637-.38.5-1.49.5h-8.61c-.93 0-1.34-.0476-1.43-.5137l-.01-.0488-.04-.0352c-.05-.0578-.15-.086-.28-.086zm-18.11.3515c-2.64.0008-4.41 1.5038-4.41 3.7403 0 1.902 1.46 3.1454 2.32 3.7168l1.98 1.293c1.44.9242 1.64 1.8812 1.64 2.7792 0 1.111-.76 2.234-2.45 2.234-2.1 0-3.02-1.625-3.42-2.988l-.02-.045c-.07-.093-.18-.144-.32-.144s-.34.055-.45.205l-.03.043v.054c.04.942.31 2.484.58 2.987l.02.039.04.021c.41.239 1.55.793 3.33.793 2.75 0 4.6-1.612 4.6-4.011 0-1.665-.88-3.0174-2.68-4.1333l-1.67-1.0429c-.63-.3929-1.69-1.229-1.69-2.4239 0-.8035.3-2.1523 2.32-2.1523 1.83 0 2.39 1.196 2.68 2.2363l.03.0586c.06.0817.18.127.31.127.16 0 .37-.0637.46-.2032l.03-.041v-.0469c0-.8509-.18-2.0408-.38-2.5976l-.04-.1035h-.12c-.14 0-.42-.0358-.68-.1172-.5-.1338-1.28-.277-1.98-.2774zm64.54 0c-4.32 0-7.57 3.228-7.57 7.5098 0 3.5865 2.6 7.2185 7.57 7.2185 4.21 0 7.39-3.194 7.39-7.4275 0-3.516-2.31-7.3008-7.39-7.3008zm21.32.2305l-.2.045c-.25.0578-1.53.0566-2.77.0566h-3.84c-.78 0-1.48-.0168-2.4-.0606l-.04-.0039-.04.0195c-.17.084-.2.3291-.21.4024-.01.1818.05.325.15.3945l.4.0664c1.06.1274 1.11.2434 1.11 2.4668v7.4941c0 2.202-.05 2.318-1.11 2.445l-.57.069-.04.039c-.12.117-.14.311-.12.453.03.155.1.271.2.322l.04.02.04-.002c.97-.04 1.67-.063 2.59-.063.84 0 1.57.023 2.77.063h.04l.04-.018c.13-.068.19-.253.2-.404.01-.18-.04-.324-.15-.393l-.78-.088c-1.06-.09-1.12-.227-1.12-2.443V8.5683c0-.4022 0-.4023.52-.4023h1.42c.73 0 1.28.0178 1.56.0976.29.093.45.284.56.6778l.22.8614.03.033c.21.177.65.167.78-.033l.03-.039v-.049c0-.216-.02-.496-.03-.8047-.03-.3773-.05-.8056-.05-1.2168 0-.4219.02-.8679.05-1.2617.01-.3237.03-.6143.03-.8398V5.543l-.03-.041c-.1-.1489-.31-.164-.39-.164-.18 0-.33.056-.41.1504l-.21.8984c-.12.5051-.26.5564-.42.6133-.22.0732-.86.1172-1.72.1172h-1.42c-.52 0-.52.0013-.52-.4004V2.3222c0-.6728 0-.6738.46-.6738h1.27c.86 0 1.54.0004 1.98.1211.9.2321 1.16.8281 1.34 1.8496l.01.0567.05.039c.07.069.19.1055.31.1055.16 0 .36-.0675.43-.2188l.02-.037v-.043c-.04-.7532-.06-1.7268-.06-2.7403zm-199.25.0117l-.14.0332c-.232.0574-1.524.0586-2.774.0586h-3.914c-.802 0-1.487-.0182-2.447-.0625l-.043-.0019-.035.0175c-.172.084-.201.3281-.205.4004-.013.1823.038.327.142.3965l.404.0664c1.067.1264 1.129.2655 1.129 2.4668v7.4961c0 2.256-.13 2.354-1.146 2.443l-.742.067-.041.041c-.119.118-.138.312-.116.455.025.154.098.27.198.32l.037.018h.039c1.203-.04 1.928-.063 2.826-.063h1.875c1.816 0 3.639.021 5.576.063l.104.002.045-.092c.279-.581.801-2.198.947-2.932l.012-.051-.022-.044c-.09-.201-.311-.291-.49-.291-.103 0-.195.028-.268.08l-.05.058c-.598 1.193-1.135 1.796-1.407 1.947-.448.224-1.08.295-2.595.295-1.735 0-2.18-.207-2.401-.427-.295-.315-.353-.991-.353-2.055V8.3613c0-.403 0-.4023.527-.4023h1.207c.727 0 1.271.0164 1.565.0996.289.0723.438.2617.529.6738l.187.8084.032.067c.077.094.224.152.39.152.191 0 .345-.073.414-.193l.022-.038v-.043c0-.203-.017-.4713-.035-.7729-.023-.3797-.049-.8098-.049-1.2266 0-.4356.026-.8806.049-1.2734.018-.3186.035-.6045.035-.8282v-.0429l-.022-.0352c-.069-.1212-.223-.1953-.414-.1953-.166 0-.313.0565-.39.1504l-.202.9258c-.094.4755-.21.5453-.392.6054-.222.0748-.849.1172-1.719.1172h-1.207c-.527 0-.527 0-.527-.4238v-4.162c0-.673 0-.6739.465-.6739h1.5c.884 0 1.559.0206 1.98.1211.95.2372 1.141.8373 1.43 1.7461l.039.125.029.0527c.071.0865.19.1347.338.1347.144 0 .345-.0497.437-.1874l.032-.0469-.028-.3086c-.108-1.2123-.206-2.2404-.318-2.5567zm86.762 0l-.14.0332c-.23.0574-1.53.0586-2.77.0586h-3.92c-.8 0-1.49-.0182-2.45-.0625l-.04-.0019-.04.0175c-.17.084-.2.3281-.2.4004-.01.1823.04.327.14.3965l.41.0664c1.06.1264 1.13.2655 1.13 2.4668v7.4961c0 2.256-.14 2.354-1.15 2.443l-.74.067-.04.041c-.12.118-.14.311-.12.453.03.154.1.272.2.322l.03.018h.04c1.21-.04 1.93-.063 2.83-.063h1.87c1.82 0 3.65.021 5.58.063l.1.002.05-.092c.28-.585.8-2.201.95-2.932l.01-.051-.02-.044c-.09-.201-.31-.291-.49-.291-.11 0-.2.028-.27.08l-.05.058c-.6 1.192-1.13 1.796-1.41 1.947-.45.224-1.08.295-2.59.295-1.74 0-2.18-.206-2.4-.427-.3-.314-.36-.991-.36-2.055V8.3613c0-.403 0-.4023.53-.4023h1.21c.72 0 1.27.0164 1.56.0996.29.0718.44.2602.53.6718l.19.8104.03.069c.08.094.22.15.39.15.19 0 .35-.073.41-.193l.03-.038v-.043c0-.203-.02-.4713-.04-.7729-.02-.3797-.05-.8098-.05-1.2266 0-.4356.03-.8806.05-1.2734.02-.3186.04-.6045.04-.8282v-.0429l-.03-.0352c-.06-.1212-.22-.1953-.41-.1953-.17 0-.31.0565-.39.1504l-.2.9258c-.09.476-.21.5453-.39.6054-.23.0748-.85.1172-1.72.1172h-1.21c-.53 0-.53 0-.53-.4238v-4.162c0-.673 0-.6739.47-.6739h1.5c.88 0 1.56.0206 1.98.1211.95.2372 1.14.8373 1.43 1.7461l.04.125.03.0527c.07.0865.19.1347.33.1347.15 0 .35-.0494.44-.1874l.03-.0469-.02-.3067c-.11-1.2132-.21-2.2419-.32-2.5586zm-52.197.0098l-.002.002-.127.0195c-.25.0376-.59.0605-.934.0605-.364 0-1.471-.0008-2.34-.0625l-.045-.0039-.039.0195c-.11.056-.187.1703-.211.3145-.028.1734.022.3562.127.463l.039.039.409.0468c.555.0691.97.2261 1.193.4492.389.4253.416.8095.416 1.3907v6.207c.001 1.006.005 3.364-.256 4.035-.049.107-.225.25-.787.324l-.619.069-.039.039c-.093.092-.14.239-.127.396.013.157.081.29.187.366l.047.033.055-.004c.724-.04 1.284-.063 2.158-.063.705 0 1.407.019 2.428.063l.056.002.043-.031c.098-.07.163-.181.184-.313a.5778.5778 0 00-.105-.432l-.043-.058-.719-.069c-.5-.04-.849-.158-.936-.316-.224-.396-.353-1.938-.353-4.23V4.8203c0-.3726.008-.7699.045-1.0527.331.3702.881 1.023 1.377 1.6093.34.4022.656.7743.859 1.0078l4.83 5.4961c1.605 1.826 2.374 2.731 2.654 3.129l.049.068h.082c.274 0 .479-.127.549-.34l.01-.033-.004-.033c-.028-.242-.061-1.068-.061-3.625V5.7871c-.003-1.0666-.011-3.2862.295-3.9356.027-.0526.277-.2293 1.047-.3496l.344-.0488.039-.039c.1-.1006.149-.2637.131-.4258-.017-.1485-.09-.2723-.201-.3418l-.045-.0274-.051.002c-.683.04-1.225.0625-2.135.0625-.734 0-1.421-.0183-2.449-.0625h-.033l-.029.0097c-.122.0448-.206.1584-.235.3125-.034.1861.021.3757.143.4805l.037.0312.402.047c.715.0892 1.078.1961 1.176.3437.249.3933.391 1.9335.391 4.2246v4.4555c0 .201-.001.436-.014.595-.722-.746-1.475-1.593-2.414-2.6443l-2.897-3.248c-2.059-2.3108-3.239-3.8274-3.505-4.5059zm-11.662.0156l-.045.0313c-.097.0638-.162.1823-.182.3242-.022.156.017.3064.107.4121l.043.0508.586.045c.478.0394.803.1661.914.3573.243.4276.377 1.9305.377 4.2305v2.3965c0 2.454-.694 5.377-4.004 5.377-2.775 0-4.068-1.717-4.068-5.4005v-4.496c0-2.2145.074-2.3752 1.104-2.4649l.541-.043.033-.0234c.104-.069.156-.2095.144-.3848-.01-.1452-.067-.3254-.203-.3926l-.037-.0175-.041.002c-.987.04-1.687.0605-2.555.0605-.855 0-1.591-.0215-2.574-.0606l-.041-.0019-.037.0175c-.136.0668-.193.246-.203.3907-.011.1757.039.3167.142.3867l.036.0234.562.043c1.031.0897 1.102.2504 1.102 2.4648v4.9121c0 2.5185.518 4.0725 1.679 5.0375.918.784 2.264 1.183 4 1.183 1.641 0 3.208-.603 4.092-1.572 1.009-1.081 1.5-2.745 1.5-5.084V6.0703c0-1.0553 0-3.5276.278-4.1817.096-.2095.453-.369.908-.4062l.568-.0449.043-.0528c.093-.1118.134-.2829.109-.4375-.021-.13-.087-.2368-.189-.3007l-.043-.0274-.051.004c-.723.04-1.285.0624-2.177.0624-.799 0-1.573-.021-2.366-.0625zm36.629 0l-.05.0274c-.12.0751-.2.2157-.21.375-.01.1592.04.3097.15.4023l.04.0332.42.047c.81.0944 1.09.4656 1.56 1.6093l3.66 9.0355c.44 1.081.76 2.007.95 2.75l.02.076.08.031c.12.049.25.074.37.074s.23-.032.32-.09l.05-.031.01-.053c.36-1.118 1.36-3.571 2.16-5.418l1.13-2.56c.96-2.1897 1.77-3.8393 2.32-4.7696.27-.428.54-.6195.96-.6543l.68-.0449.05-.043c.11-.1138.13-.3124.11-.4473-.02-.1517-.09-.2655-.19-.3242l-.04-.0254-.05.004c-.7.0418-1.34.0624-2.01.0624-.82 0-1.6-.023-2.15-.0625l-.05-.0039-.05.0254c-.11.0658-.19.2027-.21.3672-.01.1663.04.321.15.4121l.03.0332.43.047c.73.0831.79.2362.79.2362 0 .1358-.02.3447-.17.754-.36.9067-1.35 3.2904-1.94 4.6581-.15.3543-.35.8173-.56 1.3262-.4.9363-.88 2.0753-1.28 2.9703-.99-2.263-1.9-4.5349-2.82-6.855-.61-1.4952-.96-2.583-1.02-2.8536.03-.0662.21-.154.83-.2363l.36-.0489.04-.0312c.1-.091.16-.2443.14-.4102-.01-.1649-.09-.3033-.21-.369l-.04-.0235-.05.002c-.92.0437-1.65.0624-2.51.0624-.86 0-1.53-.0196-2.15-.0625l-.05-.0019zm87.53 0l-.04.0254c-.1.0583-.17.1671-.2.3066-.03.1673.02.343.12.4571l.03.043.64.1132c.55.0925.83.1406 1.53 1.4981l2.46 4.789c.59 1.1333.65 1.3693.65 2.5103v1.06c0 2.26-.06 2.376-1.11 2.486l-.7.069-.04.041c-.12.119-.14.312-.11.455.02.153.09.268.19.318l.04.02.04-.002c1.12-.041 1.85-.061 2.72-.061.85 0 1.59.022 2.83.061l.04.002.03-.02c.1-.05.18-.166.2-.32.02-.143.01-.337-.11-.455l-.05-.041-.84-.067c-.97-.072-1.11-.232-1.11-2.486v-1.084c0-1.5599.05-1.7127.96-3.291l1.31-2.2695c.12-.2048.24-.404.34-.5957.82-1.4307 1.41-2.4635 2.3-2.6172l.63-.1113.03-.0293c.11-.0925.16-.243.15-.4023-.01-.1593-.09-.2994-.21-.375l-.04-.0274-.05.004c-1.48.0864-2.36.086-3.92 0l-.05-.002-.03.0195c-.12.0582-.2.1766-.22.3223-.03.1682.02.3408.13.4531l.04.041.43.047c.41.0503.66.148.73.203-.06.298-.79 1.6508-1.23 2.4707l-.1.1758c-.5.9698-1.08 2.014-1.81 3.2695-.55-.9909-1.08-2.08-1.6-3.1367-.21-.4149-.41-.8284-.61-1.2344-.15-.3012-.62-1.3654-.63-1.5312 0-.0419.09-.1247.74-.2168l.32-.0489.04-.039c.11-.1133.16-.3186.11-.498-.03-.1424-.12-.2477-.24-.2872l-.03-.0097-.03.004c-.51.0402-1.26.0604-2.22.0604-.96 0-1.73-.0187-2.4-.0605l-.05-.0039zm-171.01.002l-.041.002c-.948.0437-1.644.0624-2.406.0624-.544 0-1.018-.0152-1.535-.0312-.334-.0113-.685-.0233-1.084-.0313h-.039l-.036.0156c-.171.0837-.199.3281-.205.4004-.012.1828.039.3285.143.3985l.035.0234.584.045c.918.0704 1.08.2573 1.08 2.4628v7.4961c0 2.168-.039 2.259-1.074 2.445l-.404.071-.036.037c-.119.118-.135.312-.113.455.025.153.095.27.195.32l.036.018.041-.002c.286-.008.559-.016.832-.026.492-.017 1.002-.035 1.58-.035.782 0 1.445.02 2.638.063h.041l.038-.018c.136-.068.194-.253.203-.404.011-.18-.043-.324-.147-.393l-.674-.088c-.999-.108-1.127-.207-1.127-2.443V8.5293c0-.5056 0-.5059.881-.5059h5.955c.881 0 .881.0003.881.506v2.9354c0 2.215-.023 2.261-1.137 2.445l-.445.071-.037.037c-.119.119-.137.314-.113.457.025.153.097.269.197.318l.037.018.041-.002c.997-.044 1.723-.061 2.51-.061.821 0 1.543.022 2.514.061l.041.002.037-.018c.172-.084.2-.329.205-.402.011-.182-.04-.326-.145-.395l-.57-.088c-1.057-.127-1.107-.241-1.107-2.443v-7.496c0-2.2183.061-2.3559 1.103-2.4649l.436-.041.074-.0274c.104-.069.158-.2112.146-.3926-.005-.0732-.034-.3192-.205-.4043l-.037-.0175-.041.002c-1.006.044-1.694.0624-2.451.0624-.902 0-1.628-.0244-2.51-.0625l-.041-.0019-.037.0175c-.171.084-.2.3296-.205.4024-.011.1818.04.325.145.3945l.466.0684c1.064.1095 1.127.2471 1.127 2.4648v2.3946c0 .507 0 .5058-.881.5058h-5.953c-.881 0-.883.0011-.883-.5058V3.9687c0-2.2182.064-2.3553 1.108-2.4648l.394-.041.073-.0254c.104-.069.156-.2147.144-.3965-.005-.0733-.033-.3183-.205-.4024l-.035-.0175zm74.514 0l-.037.0175c-.172.084-.2.3296-.205.4024-.012.1818.041.325.146.3945l.033.0235.563.045c1.049.0891 1.119.2528 1.119 2.5057v7.4121c0 2.242-.05 2.358-1.125 2.486l-.576.069-.039.039c-.119.119-.137.313-.114.455.025.154.097.271.198.32l.037.02.041-.002c1.058-.041 1.748-.061 2.618-.061.82 0 1.54.021 2.57.061l.04.002.04-.018c.17-.085.2-.331.21-.404.01-.181-.05-.324-.15-.393l-.59-.088c-1.08-.128-1.13-.244-1.13-2.486v-7.412c0-2.253.07-2.417 1.12-2.5059l.57-.043.03-.0254c.1-.0695.16-.2122.14-.3945 0-.0728-.03-.3183-.2-.4024l-.04-.0175-.04.002c-.98.039-1.72.0605-2.57.0605-.9 0-1.611-.0206-2.618-.0606zm70.829 0l-.04.0195c-.17.085-.19.3295-.2.4023-.01.181.04.3236.15.3926l.03.0254.56.043c1.06.0902 1.12.2303 1.12 2.5058v7.4121c0 2.242-.05 2.359-1.13 2.486l-.57.069-.04.039c-.12.118-.14.312-.11.455.02.154.09.27.19.32l.04.02.04-.002c1.06-.041 1.76-.061 2.62-.061.83 0 1.52.02 2.58.061l.04.002.03-.02c.17-.085.2-.329.21-.402.01-.181-.04-.324-.15-.393l-.59-.088c-1.07-.127-1.13-.244-1.13-2.486v-7.412c0-2.2756.06-2.4162 1.12-2.5059l.57-.043.03-.0254c.11-.0695.16-.2127.15-.3945-.01-.0728-.04-.3178-.21-.4024l-.03-.0175-.04.002c-.99.039-1.73.0605-2.58.0605-.89 0-1.61-.0206-2.62-.0606zm-24.32.002c-1.91 0-3.39.0528-4.66.166l-.06.0156c-.12.0606-.2.1958-.21.3593-.02.179.05.3501.17.4356l.03.0234.71.088c.68.0827.77.2305.77 2.2773v7.4765c0 2.202-.05 2.316-1.1 2.443l-.59.071-.04.047c-.11.136-.13.334-.1.474.03.141.1.243.2.291l.03.02.04-.002c.93-.038 1.69-.063 2.6-.063.86 0 1.58.025 2.47.063l.04.002.04-.02c.15-.076.19-.275.2-.357.02-.184-.03-.344-.13-.428l-.03-.027-.49-.071c-1.07-.148-1.11-.239-1.11-2.443v-2.625c0-.2969 0-.2969.82-.2969.8 0 1.07.1912 1.35.5957.31.4592.68 1.0432 1.04 1.6072.37.589.72 1.146 1 1.539 1.43 2.037 2.51 2.69 4.44 2.69.4 0 .75-.039.96-.11l.05-.027c.1-.076.15-.198.13-.32-.02-.114-.09-.207-.19-.246l-.04-.01c-.5-.036-1-.24-1.35-.547-1.43-1.202-2.57-2.958-4.15-5.5-.11-.1757-.13-.2567-.12-.291.69-.2885 2.64-1.3082 2.64-3.6016 0-1.744-.98-2.6242-1.81-3.0546-1.04-.5672-2.38-.6446-3.55-.6446zm80.51.6933c3.94 0 5.34 3.7615 5.34 6.9824 0 4.292-2.54 5.814-4.72 5.814-4.29 0-5.44-4.348-5.44-6.9175 0-4.3387 2.6-5.8789 4.82-5.8789zm-80.53.2715c2.34 0 3.17 1.6415 3.17 3.0468 0 1.154-.31 1.9345-.98 2.4551-.6.4506-1.41.5078-2.05.5078-.94 0-1.23-.036-1.31-.0625-.03-.086-.03-.33-.03-.5683v-4.873c0-.468 0-.5059 1.2-.5059zm-124.25 24.566c-5.196 0-9.842 1.401-13.49 4.249C2.499 33.351 0 38.098 0 43.645c0 6.445 3.0981 10.993 7.0957 13.742 3.6475 2.448 7.9465 3.348 12.444 3.348 3.197 0 6.794-.751 7.893-1.151.55-.2 1.15-.399 1.748-.5.75-.949 2.051-4.245 2.401-6.844-.201-.349-.951-.45-1.301-.201-1.15 2.949-3.998 7.147-10.443 7.147-8.196 0-14.842-5.798-14.842-16.291-.0001-10.344 6.497-15.192 14.142-15.192 7.246 0 9.495 3.898 10.245 7.297.349.299 1.098.25 1.347-.099-.399-3.048-.647-6.196-.697-7.346-.45.05-.801-.05-1.4-.199-2.35-.65-6.147-1.202-8.846-1.202zm101.29 0c-5.2 0-9.84 1.401-13.49 4.249-3.8 2.948-6.3 7.695-6.3 13.242 0 6.445 3.1 10.993 7.1 13.742 3.65 2.448 7.94 3.348 12.44 3.348 3.2 0 6.8-.751 7.9-1.151.55-.2 1.14-.399 1.74-.5.75-.949 2.05-4.245 2.4-6.844-.2-.349-.95-.45-1.29-.201-1.15 2.949-4 7.147-10.45 7.147-8.19 0-14.84-5.798-14.84-16.291 0-10.344 6.5-15.192 14.14-15.192 7.25 0 9.5 3.898 10.25 7.297.34.299 1.1.25 1.35-.099-.4-3.048-.66-6.196-.71-7.346-.45.05-.79-.05-1.39-.199-2.35-.65-6.15-1.202-8.85-1.202zm33.48 0c-.55.65-1.4 1.551-2.6 1.901.15.8-.15 1.746-.85 3.545l-5.09 13.494c-2.1 5.597-3.5 8.844-4.4 11.142-.7 1.8-1.8 2.351-3 2.45l-1.65.15c-.3.25-.2 1.049.1 1.248 1.35-.049 3.15-.148 4.8-.148 2.35.049 3.9.048 5.19.148.45-.199.45-.998.1-1.248l-1.64-.15c-1.2-.099-1.45-.4-1.45-1 0-.55.35-1.899 1.1-4.149l1.74-5.246c.35-1.05.65-1.199 1.9-1.199h7.55c1.5 0 1.7.15 2.05 1.25l2.2 6.795c.4 1.199.65 2.099.65 2.648 0 .5-.7.802-1.75.901l-1.45.15c-.35.25-.3 1.049.1 1.248 1.45-.049 3.35-.148 5.74-.148 2.25 0 4 .048 6.05.148.25-.199.35-.998 0-1.248l-1.35-.15c-2.15-.25-2.8-1.002-4.25-5.299l-6.84-20.088c-.75-2.198-1.55-4.496-2.2-6.695-.1-.349-.45-.45-.75-.45zm38.63 0c-7.55 0-12.5 2.349-15.84 5.848-3.1 3.297-4.5 7.594-4.5 11.842 0 4.398 1.6 8.345 4.6 11.344 3.84 3.898 9.29 5.547 15.24 5.547 2.7 0 6.29-.6 8.94-1.299.95-.249 1.85-.451 2.45-.451.2-.15.2-.451.05-.6-.9-.35-1.2-1.548-1.2-3.547v-2.799c0-2.548.05-3.946 2.15-4.197l.8-.102c.35-.298.3-1.047-.05-1.248-1.65.1-3.35.149-5.3.149-2.95 0-5.69-.049-7.14-.149-.35.15-.4 1.05 0 1.248l2.2.252c3.09.349 3.24.65 3.24 4.846v2c0 1.599-.25 2.499-.49 2.848-.56.849-2.4 1.5-5.5 1.5-10.05 0-14.99-7.548-14.99-17.141 0-7.495 4.25-14.391 13.94-14.391 5.1 0 8.84 1.698 10.24 7.094.3.301 1.2.252 1.35-.148-.45-2.999-.75-5.597-.75-7.244-.6.099-2.15-.252-3.09-.452-.86-.199-3.5-.748-6.35-.748zm37.47 0c-10.29 0-17.79 7.646-17.79 17.639 0 8.995 6.7 16.942 17.79 16.942 9.65 0 17.34-7.348 17.34-17.442 0-8.794-5.79-17.139-17.34-17.139zm-192.13.651c-.3.149-.4 1.049-.099 1.25l1.298.099c2.6.2 2.948 1.049 2.948 6.295V52.44c0 5.246-.1 5.747-2.899 6.246l-.847.15c-.301.299-.2 1.099.099 1.248 1.95-.049 3.648-.148 5.797-.148 1.949 0 3.647.048 6.346.148.3-.149.399-1.049.099-1.248l-1.449-.15c-2.798-.3-3.049-1-3.049-6.246v-7.047c0-1.498.102-1.598 2.5-1.598h14.291c2.399 0 2.498.1 2.498 1.598v7.047c0 5.246 0 5.747-3.048 6.246l-.95.15c-.299.299-.199 1.099.1 1.248 2.199-.1 3.999-.148 6.047-.148 1.949 0 3.648.048 6.047.148.299-.149.4-1.049.101-1.248l-1.201-.15c-2.898-.35-2.998-1-2.998-6.246V34.449c0-5.246.1-5.996 2.998-6.295l1.049-.099c.3-.201.2-1.101-.1-1.25-2.248.099-3.947.148-5.896.148-2.048 0-3.748-.048-6.047-.148-.299.149-.399 1.049-.1 1.25l.95.099c2.948.299 3.048 1.049 3.048 6.295v5.746c0 1.551-.099 1.6-2.498 1.6h-14.291c-2.398 0-2.5-.05-2.5-1.6v-5.746c0-5.246.102-5.996 3-6.295l.948-.099c.299-.201.2-1.101-.1-1.25-2.149.099-3.846.148-5.795.148-2.149 0-3.848-.098-6.297-.148zm43.922 0c-.3.149-.399 1.049-.1 1.25l1.25.099c2.948.249 3.047 1.098 3.047 6.395V52.34c0 5.297-.099 5.996-3.047 6.346l-1.25.15c-.299.299-.2 1.099.1 1.248 2.498-.1 4.198-.148 6.297-.148 1.999 0 3.698.048 6.197.148.299-.149.4-1.049.1-1.248l-1.25-.15c-2.949-.35-3.047-1.049-3.047-6.346V34.549c0-5.297.098-6.146 3.047-6.395l1.25-.099c.3-.201.2-1.101-.1-1.25-2.499.099-4.198.148-6.197.148-2.099 0-3.799-.048-6.297-.148zm147.36.898c9.55 0 13.2 8.895 13.2 17.141 0 9.843-5.7 14.342-11.7 14.342-9.84 0-13.44-9.595-13.44-16.991 0-10.943 6.75-14.492 11.94-14.492zm-76.95 4.547h.1c.3.599.75 1.95 1.15 3.149l2.7 8.144c.45 1.35.35 1.551-1.1 1.551h-6.15c-1.39 0-1.45-.051-1.05-1.199l3.15-8.696c.55-1.498 1.05-2.699 1.2-2.949z"/></svg>